<svg viewBox="0 0 200 200" xmlns="http://www.w3.org/2000/svg" role="img" aria-labelledby="spiderTitle">
  <title id="spiderTitle">Spider, who stands in for the algorithm</title>
  <circle cx="100" cy="100" r="96" fill="#F7F5F1"/>
  <g stroke="#248F8D" stroke-width="1" fill="none" opacity="0.5">
    <circle cx="100" cy="100" r="30"/>
    <circle cx="100" cy="100" r="50"/>
    <circle cx="100" cy="100" r="70"/>
    <line x1="100" y1="30" x2="100" y2="170"/>
    <line x1="30" y1="100" x2="170" y2="100"/>
    <line x1="50" y1="50" x2="150" y2="150"/>
    <line x1="150" y1="50" x2="50" y2="150"/>
  </g>
  <ellipse cx="100" cy="118" rx="26" ry="22" fill="#30343B"/>
  <circle cx="100" cy="86" r="15" fill="#30343B"/>
  <circle cx="94" cy="83" r="3" fill="#F7F5F1"/>
  <circle cx="106" cy="83" r="3" fill="#F7F5F1"/>
  <circle cx="90" cy="90" r="1.8" fill="#F7F5F1"/>
  <circle cx="110" cy="90" r="1.8" fill="#F7F5F1"/>
  <g stroke="#30343B" stroke-width="4" stroke-linecap="round">
    <line x1="80" y1="105" x2="55" y2="90"/>
    <line x1="78" y1="118" x2="48" y2="112"/>
    <line x1="80" y1="132" x2="52" y2="140"/>
    <line x1="88" y1="140" x2="70" y2="160"/>
    <line x1="120" y1="105" x2="145" y2="90"/>
    <line x1="122" y1="118" x2="152" y2="112"/>
    <line x1="120" y1="132" x2="148" y2="140"/>
    <line x1="112" y1="140" x2="130" y2="160"/>
  </g>
</svg>
