<svg viewBox="0 0 200 200" xmlns="http://www.w3.org/2000/svg" role="img" aria-labelledby="monsterTitle">
  <title id="monsterTitle">Monster, who stands in for the developer</title>
  <circle cx="100" cy="100" r="96" fill="#F7F5F1"/>
  <path d="M55 90 C 55 45, 145 45, 145 90 L 145 145 C 145 158, 133 158, 127 147 C 121 160, 107 160, 101 147 C 95 160, 81 160, 75 147 C 69 158, 55 158, 55 145 Z" fill="#30343B"/>
  <circle cx="80" cy="88" r="10" fill="#F7F5F1"/>
  <circle cx="118" cy="88" r="10" fill="#F7F5F1"/>
  <circle cx="80" cy="88" r="4" fill="#30343B"/>
  <circle cx="118" cy="88" r="4" fill="#30343B"/>
  <path d="M84 108 Q 100 118 116 108" stroke="#F7F5F1" stroke-width="3.5" fill="none" stroke-linecap="round"/>
  <path d="M50 82 C 40 90, 40 112, 54 120" stroke="#30343B" stroke-width="7" fill="none" stroke-linecap="round"/>
  <path d="M150 82 C 162 92, 158 118, 138 128" stroke="#30343B" stroke-width="7" fill="none" stroke-linecap="round"/>
  <rect x="70" y="30" width="10" height="16" rx="4" fill="#F28C28"/>
  <rect x="120" y="30" width="10" height="16" rx="4" fill="#248F8D"/>
</svg>
