<?xml version="1.0" standalone="no"?>
<!DOCTYPE svg PUBLIC "-//W3C//DTD SVG 20010904//EN" "http://www.w3.org/TR/2001/REC-SVG-20010904/DTD/svg10.dtd">
<!-- Created using Krita: https://krita.org -->
<svg xmlns="http://www.w3.org/2000/svg" 
    xmlns:xlink="http://www.w3.org/1999/xlink"
    xmlns:krita="http://krita.org/namespaces/svg/krita"
    xmlns:sodipodi="http://sodipodi.sourceforge.net/DTD/sodipodi-0.dtd"
    width="480pt"
    height="240pt"
    viewBox="0 0 480 240">
<defs/>
<path id="shape0" transform="translate(209.032499999999, 69.1949999999995)" fill="none" stroke="#8c8c8c" stroke-width="2.4" stroke-linecap="square" stroke-linejoin="miter" stroke-miterlimit="2" d="M0.0225 0L0 129.855" sodipodi:nodetypes="cc"/><path id="shape1" transform="translate(209.219999999999, 68.2799999999995)" fill="none" stroke="#000000" stroke-width="2.4" stroke-linecap="square" stroke-linejoin="miter" stroke-miterlimit="2" d="M16.68 20.46L0 0" sodipodi:nodetypes="cc"/><path id="shape2" transform="translate(230.29, 13.83)" fill="none" stroke="#8c8c8c" stroke-width="2.4" stroke-linecap="square" stroke-linejoin="miter" stroke-miterlimit="2" d="M67.7475 0C44.0775 25.83 36.47 36.465 0 59.925" sodipodi:nodetypes="cc"/><path id="shape01" transform="matrix(-0.996923076923039 0 0 1 375.094999999997 13.5660000000001)" fill="none" stroke="#8c8c8c" stroke-width="2.4" stroke-linecap="square" stroke-linejoin="miter" stroke-miterlimit="2" d="M68.7889 0C51.9626 17.1621 40.3414 28.5614 33.9254 34.198C26.5114 40.7114 15.2029 49.2921 0 59.94" sodipodi:nodetypes="ccc"/><path id="shape11" transform="matrix(-0.996923076923039 0 0 1 375.649999999997 74.4510000000001)" fill="none" stroke="#8c8c8c" stroke-width="2.4" stroke-linecap="square" stroke-linejoin="miter" stroke-miterlimit="2" d="M0 0L70.2 0" sodipodi:nodetypes="cc"/><path id="shape02" transform="translate(356.592874910714, 89.7311985545734)" sodipodi:type="arc" sodipodi:rx="82.56" sodipodi:ry="60.6" sodipodi:cx="-55.872874910714" sodipodi:cy="-0.331198554573417" sodipodi:start="0.0054653498910664" sodipodi:end="0.827450686656093" sodipodi:open="true" d="M0 44.283C16.8923 32.8852 26.5605 16.8416 26.6859 -1.94761e-15" fill="none" stroke="#5f3e1d" stroke-width="2.4" stroke-linecap="square" stroke-linejoin="bevel"/><path id="shape3" transform="translate(218.31, 89.6399999999994)" fill="none" stroke="#5f3e1d" stroke-width="2.4" stroke-linecap="square" stroke-linejoin="miter" stroke-miterlimit="2" d="M0 0L164.835 0" sodipodi:nodetypes="cc"/><path id="shape4" transform="translate(229.81, 74.4975)" fill="none" stroke="#8c8c8c" stroke-width="2.4" stroke-linecap="square" stroke-linejoin="miter" stroke-miterlimit="2" d="M0 0L69.03 0.0225" sodipodi:nodetypes="cc"/><path id="shape5" transform="translate(302.219999999998, 13.2299999999999)" fill="none" stroke="#5f3e1d" stroke-width="2.4" stroke-linecap="square" stroke-linejoin="miter" stroke-miterlimit="2" d="M0 76.41L0.09 0" sodipodi:nodetypes="cc"/><path id="shape6" transform="translate(221.354999999998, 104.28)" fill="none" stroke="#5f3e1d" stroke-width="2.4" stroke-linecap="square" stroke-linejoin="miter" stroke-miterlimit="2" d="M0 0L159.045 0" sodipodi:nodetypes="cc"/><path id="shape03" transform="translate(229.409999999998, 118.536)" fill="none" stroke="#5f3e1d" stroke-width="2.4" stroke-linecap="square" stroke-linejoin="miter" stroke-miterlimit="2" d="M0 0L142.92 0" sodipodi:nodetypes="cc"/><path id="shape04" transform="translate(246.21, 132.792)" fill="none" stroke="#5f3e1d" stroke-width="2.4" stroke-linecap="square" stroke-linejoin="miter" stroke-miterlimit="2" d="M0 0L36.78 0" sodipodi:nodetypes="cc"/><path id="shape7" transform="translate(299.009999999998, 13.32)" fill="none" stroke="#8c8c8c" stroke-width="2.4" stroke-linecap="square" stroke-linejoin="miter" stroke-miterlimit="2" d="M0 61.17L0.045 0" sodipodi:nodetypes="cc"/><path id="shape8" transform="translate(305.61, 13.2)" fill="none" stroke="#8c8c8c" stroke-width="2.4" stroke-linecap="square" stroke-linejoin="miter" stroke-miterlimit="2" d="M0 61.08L0 0" sodipodi:nodetypes="cc"/><path id="shape9" transform="translate(209.04, 199.17)" fill="none" stroke="#b2b2b2" stroke-width="2.4" stroke-linecap="square" stroke-linejoin="miter" stroke-miterlimit="2" d="M0 0L0.03 3.45" sodipodi:nodetypes="cc"/><path id="shape10" transform="translate(205.65, 202.544999999999)" sodipodi:type="arc" sodipodi:rx="7.69939126688986" sodipodi:ry="7.15498387527294" sodipodi:cx="4.69004123932869" sodipodi:cy="7.15501734817226" sodipodi:start="4.67902966886204" sodipodi:end="2.22577763725279" sodipodi:open="true" d="M0 12.8293C2.69041 14.7497 6.41632 14.8074 9.17407 12.9714C11.9318 11.1354 13.0715 7.83834 11.9802 4.85335C10.8889 1.86835 7.8238 -0.101134 4.43324 0.00401429" fill="none" stroke="#b2b2b2" stroke-width="2.4" stroke-linecap="square" stroke-linejoin="bevel"/><path id="shape05" transform="translate(218.329002864217, 89.7500688513428)" sodipodi:type="arc" sodipodi:rx="82.56" sodipodi:ry="60.6" sodipodi:cx="82.5585846811029" sodipodi:cy="-0.354836323844493" sodipodi:start="2.46273656416674" sodipodi:end="3.13573723524819" sodipodi:open="true" d="M0 0C0.109482 13.7241 6.56247 27.0145 18.3028 37.6961" fill="none" stroke="#5f3e1d" stroke-width="2.4" stroke-linecap="square" stroke-linejoin="bevel"/><path id="shape06" transform="translate(300.504, 132.768)" fill="none" stroke="#5f3e1d" stroke-width="2.4" stroke-linecap="square" stroke-linejoin="miter" stroke-miterlimit="2" d="M0 0L36.78 0" sodipodi:nodetypes="cc"/><path id="shape07" transform="translate(354.42, 132.804)" fill="none" stroke="#5f3e1d" stroke-width="2.4" stroke-linecap="square" stroke-linejoin="miter" stroke-miterlimit="2" d="M0 0L2.88 0" sodipodi:nodetypes="cc"/><path id="shape12" transform="translate(21.3138513708292, 126.653885991999)" sodipodi:type="arc" sodipodi:rx="37.6199999999991" sodipodi:ry="37.44" sodipodi:cx="27.0461486291703" sodipodi:cy="-26.0238859919982" sodipodi:start="0.770112816873548" sodipodi:end="2.37305810960275" sodipodi:open="true" d="M0 0C7.08092 7.28882 16.8293 11.4081 27.0165 11.4161C37.2036 11.4241 46.9585 7.32013 54.051 0.0424495" fill="none" stroke="#007cff" stroke-width="2.4" stroke-linecap="square" stroke-linejoin="bevel"/><path id="shape08" transform="translate(75.3473030844183, 126.653849775087)" sodipodi:type="arc" sodipodi:rx="37.6199999999991" sodipodi:ry="37.44" sodipodi:cx="27.0461486291704" sodipodi:cy="-26.023885991998" sodipodi:start="0.770112816873548" sodipodi:end="2.37305810960275" sodipodi:open="true" d="M0 0C7.08092 7.28882 16.8293 11.4081 27.0165 11.4161C37.2036 11.4241 46.9585 7.32013 54.051 0.0424495" fill="none" stroke="#007cff" stroke-width="2.4" stroke-linecap="square" stroke-linejoin="bevel"/><path id="shape09" transform="translate(129.350648255777, 126.668853396778)" sodipodi:type="arc" sodipodi:rx="37.6199999999991" sodipodi:ry="37.44" sodipodi:cx="27.0461486291704" sodipodi:cy="-26.023885991998" sodipodi:start="0.770112816873548" sodipodi:end="2.37305810960275" sodipodi:open="true" d="M0 0C7.08092 7.28882 16.8293 11.4081 27.0165 11.4161C37.2036 11.4241 46.9585 7.32013 54.051 0.0424495" fill="none" stroke="#007cff" stroke-width="2.4" stroke-linecap="square" stroke-linejoin="bevel"/><path id="shape011" transform="translate(183.384099969366, 126.638817179867)" sodipodi:type="arc" sodipodi:rx="37.6199999999991" sodipodi:ry="37.44" sodipodi:cx="27.0461486291704" sodipodi:cy="-26.023885991998" sodipodi:start="0.770112816873548" sodipodi:end="2.37305810960275" sodipodi:open="true" d="M0 0C7.08092 7.28882 16.8293 11.4081 27.0165 11.4161C37.2036 11.4241 46.9585 7.32013 54.051 0.0424495" fill="none" stroke="#007cff" stroke-width="2.4" stroke-linecap="square" stroke-linejoin="bevel"/><path id="shape010" transform="translate(237.496827944271, 126.670350137256)" sodipodi:type="arc" sodipodi:rx="37.6199999999991" sodipodi:ry="37.44" sodipodi:cx="27.0461486291704" sodipodi:cy="-26.023885991998" sodipodi:start="0.770112816873548" sodipodi:end="2.37305810960275" sodipodi:open="true" d="M0 0C7.08092 7.28882 16.8293 11.4081 27.0165 11.4161C37.2036 11.4241 46.9585 7.32013 54.051 0.0424495" fill="none" stroke="#007cff" stroke-width="2.4" stroke-linecap="square" stroke-linejoin="bevel"/><path id="shape012" transform="translate(291.53027965786, 126.670313920345)" sodipodi:type="arc" sodipodi:rx="37.6199999999991" sodipodi:ry="37.44" sodipodi:cx="27.0461486291704" sodipodi:cy="-26.023885991998" sodipodi:start="0.770112816873548" sodipodi:end="2.37305810960275" sodipodi:open="true" d="M0 0C7.08092 7.28882 16.8293 11.4081 27.0165 11.4161C37.2036 11.4241 46.9585 7.32013 54.051 0.0424495" fill="none" stroke="#007cff" stroke-width="2.4" stroke-linecap="square" stroke-linejoin="bevel"/><path id="shape021" transform="translate(345.533624829218, 126.685317542036)" sodipodi:type="arc" sodipodi:rx="37.6199999999991" sodipodi:ry="37.44" sodipodi:cx="27.0461486291704" sodipodi:cy="-26.023885991998" sodipodi:start="0.770112816873548" sodipodi:end="2.37305810960275" sodipodi:open="true" d="M0 0C7.08092 7.28882 16.8293 11.4081 27.0165 11.4161C37.2036 11.4241 46.9585 7.32013 54.051 0.0424495" fill="none" stroke="#007cff" stroke-width="2.4" stroke-linecap="square" stroke-linejoin="bevel"/><path id="shape0111" transform="translate(399.567076542807, 126.685281325124)" sodipodi:type="arc" sodipodi:rx="37.6199999999991" sodipodi:ry="37.44" sodipodi:cx="27.0461486291704" sodipodi:cy="-26.023885991998" sodipodi:start="0.770112816873548" sodipodi:end="2.37305810960275" sodipodi:open="true" d="M0 0C7.08092 7.28882 16.8293 11.4081 27.0165 11.4161C37.2036 11.4241 46.9585 7.32013 54.051 0.0424495" fill="none" stroke="#007cff" stroke-width="2.4" stroke-linecap="square" stroke-linejoin="bevel"/><g id="group0" transform="matrix(0.905597507259018 0.392667571399047 -0.392667571399047 0.905597507259018 63.9453733764911 139.731485379293)" fill="none">
  <path id="a" transform="translate(14.047838, 13.662897)" fill="none" stroke="#009900" stroke-width="5" stroke-linecap="round" stroke-linejoin="round" d="M0 19.0647L0 0L19.0625 19.0647L19.0625 0" sodipodi:nodetypes="cccc"/>
  <path id="shape13" transform="translate(38, 11.1875)" fill="#009900" stroke-opacity="0" stroke="#000000" stroke-width="0" stroke-linecap="square" stroke-linejoin="bevel" d="M6.6875 0L6 1.28125L0.6875 10.9375L0 12.1563L0.6875 13.375L6 22.7188L6.71875 24L8.1875 24L19.0625 24L20.625 24L21.3125 22.5938L25.2813 14.5938L27.0625 10.9688L23.0313 10.9688L12.875 11C11.5542 10.9813 10.3394 12.1791 10.3394 13.5C10.3394 14.8209 11.5542 16.0187 12.875 16L19 15.9688L17.5 19L9.625 19L5.71875 12.125L9.65625 5L18.0335 5L19.9866 9.00781L25.0178 9.00781L21.846 1.40625L21.1585 1.77636e-15L19.596 1.77636e-15L8.1875 1.77636e-15Z" sodipodi:nodetypes="cccccccccccccccccccccccccccccc"/>
  <path id="shape14" transform="translate(67.5448638495703, 11.1560824025419)" fill="#009900" stroke-opacity="0" stroke="#000000" stroke-width="0" stroke-linecap="square" stroke-linejoin="bevel" d="M2.46892 0.000167597C1.15993 0.0165576 -0.0161658 1.22243 0.00016815 2.53142L0.00016815 9.04593L5.00017 9.04593L5.00017 2.53142C5.01676 1.2016 3.79874 -0.0164254 2.46892 0.000167597Z" sodipodi:nodetypes="cccccc"/>
  <g id="group1" transform="matrix(-1 0 0 1 111.13905 0.0484162299999982)" fill="none">
   <path id="a_12d178d2" transform="translate(14.047838, 13.662897)" fill="none" stroke="#009900" stroke-width="5" stroke-linecap="round" stroke-linejoin="round" d="M0 19.0647L0 0L19.0625 19.0647L19.0625 0" sodipodi:nodetypes="cccc"/>
  </g>
  <g id="group2" transform="translate(0.105862509999998, 0.330102279999999)" fill="none">
   <path id="b" transform="translate(104.90935, 13.374209)" fill="none" stroke="#009900" stroke-width="5" stroke-linecap="round" stroke-linejoin="round" d="M0 0L19.0848 19.0179" sodipodi:nodetypes="cc"/>
   <g id="group3" transform="matrix(-1 0 0 1 228.92583 -8.88178419700125e-16)" fill="none">
    <path id="b_5e099e05" transform="translate(104.90935, 13.374209)" fill="none" stroke="#009900" stroke-width="5" stroke-linecap="round" stroke-linejoin="round" d="M0 0L19.0848 19.0179" sodipodi:nodetypes="cc"/>
   </g>
  </g>
  <path id="shape15" transform="translate(67.5448638495703, 22.208456)" fill="#009900" stroke-opacity="0" stroke="#000000" stroke-width="0" stroke-linecap="square" stroke-linejoin="bevel" d="M2.46892 12.9956C1.15993 12.9792 -0.0161658 11.7734 0.00016815 10.4644L0.00016815 0L5.00017 0L5.00017 10.4644C5.01676 11.7942 3.79874 13.0122 2.46892 12.9956Z" sodipodi:nodetypes="cccccc"/>
 </g><g id="group4" transform="translate(259.2, 172.44)" fill="none">
  <circle id="shape16" transform="matrix(0.181776310219287 0 0 0.181776310219287 0 0)" r="141.732" cx="141.732" cy="141.732" fill="#dd4814" stroke-opacity="0" stroke="#000000" stroke-width="0" stroke-linecap="square" stroke-linejoin="bevel"/>
  <g id="U" transform="matrix(0.181776310219287 0 0 0.181776310219287 25.76352 25.7635199999999)" fill="none">
   <circle id="shape17" transform="translate(-115.2987, -18.9215)" r="18.9215" cx="18.9215" cy="18.9215" fill="#ffffff" stroke-opacity="0" stroke="#000000" stroke-width="0" stroke-linecap="square" stroke-linejoin="bevel"/>
   <path id="shape18" transform="translate(-79.6011, -68.395)" fill="#ffffff" stroke-opacity="0" stroke="#000000" stroke-width="0" stroke-linecap="square" stroke-linejoin="bevel" d="M33.9952 136.79C17.4356 125.727 5.1167 108.813 0 89.0015C5.9781 84.1304 9.7964 76.7114 9.7964 68.395C9.7964 60.0786 5.9781 52.6596 0 47.7885C5.1167 27.9775 17.4356 11.0634 33.9952 0L47.8296 23.1738C33.6187 33.1753 24.3257 49.6924 24.3257 68.395C24.3257 87.0976 33.6187 103.615 47.8296 113.616Z" sodipodi:nodetypes="ccccccccc"/>
  </g>
  <g id="group5" transform="matrix(-0.0908881551096434 0.157422902456103 -0.157422902456103 -0.0908881551096434 25.7635199999999 25.7635199999999)" fill="none">
   <g id="U_5bb8ba19" fill="none">
    <circle id="shape19" transform="translate(-115.2987, -18.9215)" r="18.9215" cx="18.9215" cy="18.9215" fill="#ffffff" stroke-opacity="0" stroke="#000000" stroke-width="0" stroke-linecap="square" stroke-linejoin="bevel"/>
    <path id="shape20" transform="translate(-79.6011000000001, -68.395)" fill="#ffffff" stroke-opacity="0" stroke="#000000" stroke-width="0" stroke-linecap="square" stroke-linejoin="bevel" d="M33.9952 136.79C17.4356 125.727 5.1167 108.813 0 89.0015C5.9781 84.1304 9.7964 76.7114 9.7964 68.395C9.7964 60.0786 5.9781 52.6596 0 47.7885C5.1167 27.9775 17.4356 11.0634 33.9952 0L47.8296 23.1738C33.6187 33.1753 24.3257 49.6924 24.3257 68.395C24.3257 87.0976 33.6187 103.615 47.8296 113.616Z" sodipodi:nodetypes="ccccccccc"/>
   </g>
  </g>
  <g id="group6" transform="matrix(-0.0908881551096435 -0.157422902456103 0.157422902456103 -0.0908881551096435 25.76352 25.7635199999999)" fill="none">
   <g id="U_324dcc2c" fill="none">
    <circle id="shape21" transform="translate(-115.2987, -18.9215)" r="18.9215" cx="18.9215" cy="18.9215" fill="#ffffff" stroke-opacity="0" stroke="#000000" stroke-width="0" stroke-linecap="square" stroke-linejoin="bevel"/>
    <path id="shape22" transform="translate(-79.6011000000001, -68.395)" fill="#ffffff" stroke-opacity="0" stroke="#000000" stroke-width="0" stroke-linecap="square" stroke-linejoin="bevel" d="M33.9952 136.79C17.4356 125.727 5.1167 108.813 0 89.0015C5.9781 84.1304 9.7964 76.7114 9.7964 68.395C9.7964 60.0786 5.9781 52.6596 0 47.7885C5.1167 27.9775 17.4356 11.0634 33.9952 0L47.8296 23.1738C33.6187 33.1753 24.3257 49.6924 24.3257 68.395C24.3257 87.0976 33.6187 103.615 47.8296 113.616Z" sodipodi:nodetypes="ccccccccc"/>
   </g>
  </g>
 </g><g id="orginal" fill="none"/><g id="Layer_x0020_3" transform="matrix(0.104562411917923 -0.0409317008437929 0.0409317008437929 0.104562411917923 380.271438684335 177.973568325426)" fill="none">
  <path id="shape23" transform="translate(19.1998964830917, 18.6975821239617)" fill="#000000" stroke="#000000" stroke-width="37.3953" stroke-linecap="butt" stroke-linejoin="miter" stroke-miterlimit="4" d="M304.005 305.529C306.838 281.928 305.989 278.467 323.568 282.29L328.031 282.682C341.548 283.297 359.23 280.508 369.618 275.682C391.98 265.306 405.24 247.982 383.19 252.534C332.893 262.91 329.435 245.879 329.435 245.879C382.546 167.076 404.748 67.0434 385.584 42.5574C333.314 -24.2316 242.836 7.35142 241.322 8.17142L240.84 8.26042C230.902 6.19842 219.78 4.96642 207.286 4.76442C184.525 4.39042 167.254 10.7314 154.153 20.6684C154.153 20.6684 -7.2549 -45.8296 0.254104 104.296C1.8511 136.232 46.0311 345.951 98.7241 282.606C117.983 259.443 136.595 239.858 136.595 239.858C145.837 245.998 156.902 249.13 168.507 248.005L169.404 247.24C169.123 250.116 169.247 252.929 169.763 256.259C156.191 271.426 160.179 274.089 133.04 279.675C105.583 285.334 121.714 295.409 132.243 298.042C145.011 301.235 174.548 305.758 194.511 277.818L193.716 281.006C199.041 285.266 198.681 311.625 199.436 330.458C200.192 349.292 201.453 366.867 205.292 377.229C209.131 387.589 213.661 414.279 249.328 406.635C279.137 400.247 301.928 391.053 304.005 305.528" sodipodi:nodetypes="ccccccccccccccccccccccccc"/>
  <path id="shape24" transform="translate(19.195034359902, 18.6961448348306)" fill="#336791" stroke-opacity="0" stroke="#000000" stroke-width="0" stroke-linecap="square" stroke-linejoin="bevel" d="M383.2 252.534C332.898 262.91 329.44 245.879 329.44 245.879C382.551 167.071 404.753 67.0359 385.593 42.5529C333.323 -24.2321 242.841 7.35286 241.331 8.17286L240.845 8.25986C230.907 6.19686 219.785 4.96786 207.285 4.76386C184.524 4.39086 167.259 10.7309 154.158 20.6659C154.158 20.6659 -7.25303 -45.8291 0.253966 104.296C1.85097 136.234 46.03 345.953 98.725 282.608C117.985 259.445 136.594 239.86 136.594 239.86C145.837 246 156.902 249.132 168.502 248.007L169.403 247.242C169.123 250.118 169.251 252.931 169.764 256.261C156.189 271.428 160.178 274.091 133.041 279.677C105.582 285.336 121.713 295.411 132.245 298.044C145.013 301.237 174.552 305.76 194.511 277.82L193.715 281.008C199.034 285.268 202.769 308.719 202.143 329.977C201.517 351.236 201.099 365.831 205.29 377.231C209.481 388.631 213.658 414.281 249.332 406.637C279.141 400.249 294.588 383.695 296.737 356.082C298.262 336.451 301.713 339.353 301.931 321.802L304.699 313.493C307.891 286.882 305.206 278.297 323.571 282.29L328.034 282.682C341.551 283.297 359.242 280.508 369.625 275.682C391.983 265.306 405.243 247.982 383.198 252.534Z" sodipodi:nodetypes="cccccccccccccccccccccccccccc"/>
  <path id="shape25" transform="translate(215.404526693185, 286.484)" fill="none" stroke="#ffffff" stroke-width="12.4651" stroke-linecap="round" stroke-linejoin="round" d="M0.461473 0C-0.923527 49.516 0.809473 99.377 5.65447 111.495C10.5025 123.613 20.8775 147.183 56.5545 139.54C86.3605 133.15 97.2055 120.784 101.911 93.489C105.377 73.407 112.059 17.635 112.916 6.208" sodipodi:nodetypes="ccccc"/>
  <path id="shape26" transform="translate(18.8380688898387, 23.8007385196032)" fill="none" stroke="#ffffff" stroke-width="12.4651" stroke-linecap="round" stroke-linejoin="round" d="M154.266 14.4553C154.266 14.4553 -7.25507 -51.5607 0.253931 98.5643C1.85093 130.502 46.0329 340.228 98.7269 276.88C117.983 253.714 135.398 235.545 135.398 235.545" sodipodi:nodetypes="cccc"/>
  <path id="shape27" transform="translate(260.113840794926, 18.0763330598554)" fill="none" stroke="#ffffff" stroke-width="12.4651" stroke-linecap="round" stroke-linejoin="round" d="M0.235159 8.13067C-5.35584 9.88367 90.0832 -26.7583 144.322 42.5477C163.481 67.0317 141.279 167.067 88.1692 245.877" sodipodi:nodetypes="ccc"/>
  <path id="shape28" transform="translate(131.920886013239, 22.8173755891243)" fill="none" stroke="#ffffff" stroke-width="12.4651" stroke-linecap="round" stroke-linejoin="bevel" d="M216.361 241.136C216.361 241.136 219.822 258.172 270.125 247.789C292.165 243.237 278.901 260.563 256.548 270.944C238.203 279.458 197.074 281.64 196.402 269.875C194.673 239.52 218.049 248.742 216.362 241.136C214.837 234.286 204.383 227.563 197.468 210.798C191.431 196.165 114.672 83.9486 218.755 100.615C222.568 99.8256 191.609 1.61262 94.2021 0.0156244C-3.18289 -1.58138 0.012114 119.778 0.012114 119.778" sodipodi:nodetypes="ccccccccc"/>
  <path id="shape29" transform="translate(136.699229270372, 268.763425456975)" fill="none" stroke="#ffffff" stroke-width="12.4651" stroke-linecap="round" stroke-linejoin="round" d="M51.9048 5.57057C38.3278 20.7366 42.3208 23.3996 15.1818 28.9876C-12.2772 34.6476 3.85577 44.7206 14.3848 47.3526C27.1528 50.5476 56.6918 55.0706 76.6508 27.1236C82.7288 18.6146 76.6148 5.03757 68.2658 1.57657C64.2318 -0.0944255 58.8378 -2.18843 51.9048 5.57057Z" sodipodi:nodetypes="cccccc"/>
  <path id="shape30" transform="translate(130.260137409294, 123.854907205304)" fill="none" stroke="#ffffff" stroke-width="12.4651" stroke-linecap="round" stroke-linejoin="round" d="M57.4549 150.214C56.0869 141.297 60.3849 130.686 64.9909 118.272C71.9129 99.6461 87.8839 81.0171 75.1079 21.9331C65.5849 -22.0959 1.71186 12.7701 1.67186 18.7401C1.63286 24.7081 4.56086 49.0001 0.604863 77.2881C-4.55714 114.201 24.0929 145.42 57.0839 142.226" sodipodi:nodetypes="cccccc"/>
  <path id="shape31" transform="translate(172.502445908875, 139.102224050071)" fill="#ffffff" stroke="#ffffff" stroke-width="4.155" stroke-linecap="butt" stroke-linejoin="miter" stroke-miterlimit="4" d="M0.0145541 2.59778C-0.273446 4.63678 3.74755 10.0778 8.99055 10.8048C14.2246 11.5348 18.7046 7.28278 18.9886 5.24578C19.2726 3.20678 15.2566 0.960776 10.0116 0.230776C4.77455 -0.500224 0.292554 0.563776 0.0155541 2.59778Z" sodipodi:nodetypes="cccccc"/>
  <path id="shape32" transform="translate(312.946493426213, 134.94563058403)" fill="#ffffff" stroke="#ffffff" stroke-width="2.0775" stroke-linecap="butt" stroke-linejoin="miter" stroke-miterlimit="4" d="M18.9945 2.59737C19.2785 4.63637 15.2625 10.0774 10.0185 10.8044C4.78051 11.5344 0.300507 7.28237 0.0135066 5.24537C-0.263493 3.20637 3.75351 0.960369 8.99251 0.230369C14.2315 -0.499631 18.7105 0.563369 18.9945 2.59837Z" sodipodi:nodetypes="cccccc"/>
  <path id="shape33" transform="translate(339.497, 123.432)" fill="none" stroke="#ffffff" stroke-width="12.4651" stroke-linecap="round" stroke-linejoin="round" d="M11.179 0C12.042 15.994 7.734 26.888 7.191 43.914C6.387 68.662 18.99 96.988 0 125.349" sodipodi:nodetypes="ccc"/>
  <path id="shape34" transform="translate(0, 60.232)" fill="none" stroke="#ffffff" stroke-width="3" stroke-linecap="round" stroke-linejoin="round" d="M0 0" sodipodi:nodetypes="c"/>
 </g>
</svg>
